<svg width="132" height="132" viewBox="0 0 132 132" fill="none" xmlns="http://www.w3.org/2000/svg">
<path d="M1 1H131V127C131 129.209 129.209 131 127 131H5C2.79086 131 1 129.209 1 127V1Z" fill="#141414" stroke="#141414"/>
<path d="M29.3086 108.238C29.3086 103.14 31.7423 102.381 33.9641 102.381H36.889V104.129H33.7811C32.0505 104.129 31.4084 104.892 31.1451 106.563H31.2222C31.2222 106.563 31.9125 105.345 33.749 105.345C36.1217 105.345 37.5023 107.096 37.5023 109.301C37.5023 111.505 36.1249 113.257 33.444 113.257C31.2992 113.257 29.3086 112.038 29.3086 108.235V108.238ZM33.444 111.661C34.8053 111.661 35.3575 110.58 35.3575 109.304C35.3575 108.028 34.8053 106.946 33.444 106.946C32.0826 106.946 31.5304 108.028 31.5304 109.304C31.5304 110.58 32.0826 111.661 33.444 111.661Z" fill="#00B637"/>
<path d="M37.3513 107.553C37.4733 105.53 39.1107 104.889 40.9505 104.889C42.7902 104.889 44.3955 105.575 44.3955 107.629V113.03H42.2508V111.509H42.1737C42.1737 111.509 41.6825 113.257 39.6469 113.257C38.1925 113.257 37.1201 112.587 37.1201 111.126C37.1201 109.665 38.3466 108.979 39.663 108.647C40.9954 108.312 42.2508 108.207 42.2508 107.323C42.2508 106.698 41.7917 106.334 40.9505 106.334C40.0322 106.334 39.5281 106.698 39.496 107.553H37.3513ZM40.5684 109.684C39.8781 109.85 39.297 110.201 39.297 110.902C39.297 111.512 39.724 111.891 40.4143 111.891C41.8687 111.891 42.2508 110.216 42.2508 109.046C41.9008 109.365 41.1784 109.534 40.5652 109.684H40.5684Z" fill="#00B637"/>
<path d="M46.877 105.118H49.2979L52.1618 113.03H49.8662L48.0297 107.415L46.1932 113.03H44.0195L46.8835 105.118H46.877Z" fill="#00B637"/>
<path d="M56.4518 108.618C56.4518 107.249 56.1757 106.64 55.3345 106.64C54.4163 106.64 53.925 107.326 53.925 108.924V113.033H51.7803V105.121H53.848V106.413H53.925C53.925 106.413 54.4612 104.892 56.0698 104.892C57.3572 104.892 58.0475 105.501 58.3526 106.429L58.3686 106.413H58.4457C58.4457 106.413 59.136 104.892 60.7445 104.892C62.7351 104.892 63.2713 106.337 63.2713 108.162V113.03H61.1266V108.618C61.1266 107.249 60.8505 106.64 60.0093 106.64C59.091 106.64 58.5998 107.326 58.5998 108.924V113.033H56.455V108.621L56.4518 108.618Z" fill="#00B637"/>
<path d="M70.4663 112.118C70.4663 114.402 69.2398 115.997 66.4851 115.997C62.8088 115.997 62.7318 113.257 62.7318 113.257H64.8765C64.8765 113.257 64.9536 114.399 66.4851 114.399C67.8464 114.399 68.3216 113.636 68.3216 112.268V111.888H68.2445C68.2445 111.888 67.5542 112.954 65.8718 112.954C63.5762 112.954 62.4268 110.976 62.4268 108.921C62.4268 106.867 63.5762 104.889 65.8718 104.889C67.6313 104.889 68.3216 106.181 68.3216 106.181H68.3986V105.115H70.4663V112.115V112.118ZM66.4851 106.487C65.1847 106.487 64.5715 107.642 64.5715 108.921C64.5715 110.201 65.1847 111.355 66.4851 111.355C67.7854 111.355 68.3986 110.197 68.3986 108.921C68.3986 107.645 67.7854 106.487 66.4851 106.487Z" fill="#00B637"/>
<path d="M74.2232 104.892C76.8431 104.892 78.0535 106.765 78.0535 109.078C78.0535 109.259 78.0375 109.534 78.0375 109.534H72.4027C72.4958 110.752 73.0159 111.665 74.3034 111.665C75.5909 111.665 75.8349 110.446 75.8349 110.446H77.9797C77.9797 110.446 77.5205 113.26 74.2264 113.26C71.5454 113.26 70.2451 111.387 70.2451 109.074C70.2451 106.761 71.6064 104.889 74.2264 104.889L74.2232 104.892ZM72.4637 108.162H75.8478C75.7097 107.189 75.2795 106.487 74.2232 106.487C73.1668 106.487 72.6467 107.186 72.4637 108.162Z" fill="#00B637"/>
<path d="M77.823 105.118H85.1755V106.793L82.5716 109.227C82.5716 109.227 85.4805 109.304 85.4805 112.501C85.4805 114.249 84.254 116 81.6501 116C78.6642 116 77.5918 114.252 77.5918 112.424H79.7365C79.7365 113.489 80.2727 114.402 81.6501 114.402C82.7064 114.402 83.3357 113.639 83.3357 112.577C83.3357 111.435 82.7995 110.599 80.6548 110.599H80.0416V109.38L82.7225 106.793H77.823V105.118Z" fill="#00B637"/>
<path d="M89.846 113.26C89.22 115.072 88.3916 116 86.783 116C86.0157 116 85.4057 115.77 85.4057 115.77V114.022C85.4057 114.022 85.8648 114.175 86.401 114.175C87.1683 114.175 87.4733 113.764 87.7784 113.033L84.5645 105.121H86.8601L88.8058 110.34L90.3822 105.121H92.6779L89.846 113.263V113.26Z" fill="#00B637"/>
<path d="M95.5926 104.892C99.1147 104.892 99.3459 108.012 99.3459 108.012H97.2011C97.2011 108.012 97.1241 106.49 95.5926 106.49C94.2312 106.49 93.7561 107.645 93.7561 109.077C93.7561 110.51 94.2312 111.665 95.5926 111.665C97.1241 111.665 97.2011 110.143 97.2011 110.143H99.3459C99.3459 110.143 99.1147 113.263 95.5926 113.263C92.9887 113.263 91.6113 111.39 91.6113 109.077C91.6113 106.764 92.9887 104.892 95.5926 104.892Z" fill="#00B637"/>
<path d="M100.476 102.229V100.302H101.031V102.229L102.723 101.265L103 101.747L101.308 102.71L103 103.674L102.723 104.156L101.031 103.192V105.119H100.476V103.192L98.7839 104.156L98.5078 103.674L100.184 102.71L98.5078 101.747L98.7839 101.265L100.476 102.229Z" fill="#67C84A" stroke="#67C84A" stroke-width="0.30117" stroke-linejoin="round"/>
<path d="M29 16.0059H45.8947V19.059H32.0726V95.3581H45.8947V98.4112H29V16.0059Z" fill="#00B637" stroke="#00B637" stroke-width="0.999629" stroke-linejoin="round"/>
<path d="M99.6476 98.4112H82.7529V95.3581H96.575V19.059H82.7529V16.0059H99.6476V98.4112Z" fill="#00B637" stroke="#00B637" stroke-width="0.999629" stroke-linejoin="round"/>
<path d="M81.7802 96.8693V98.8856H47.0791V97.6541H62.9463C63.0105 97.3925 63.0523 97.2234 63.139 96.8661C69.3099 95.5198 75.5098 95.5421 81.7802 96.8661V96.8693Z" fill="#67C84A"/>
<path d="M65.6567 44.9465C65.7883 45.3197 65.8526 45.5048 65.9425 45.7536H81.7583V47.0042H47.0957V44.9975C53.2859 43.5459 59.4954 43.6735 65.6567 44.9433V44.9465Z" fill="#67C84A"/>
<path d="M47.0693 19.0322V17.0637C53.3109 15.5835 59.5076 15.7334 65.6624 16.9872C65.7877 17.37 65.8487 17.5551 65.9289 17.8039H81.7576V19.029H47.0693V19.0322Z" fill="#67C84A"/>
<path d="M81.768 70.9569H47.0957V69.7095H62.8859C62.9854 69.4479 63.0528 69.2692 63.1877 68.9119C69.3362 67.5624 75.536 67.572 81.7712 68.9311V70.9537L81.768 70.9569Z" fill="#67C84A"/>
<path d="M62.892 41.7468C62.9851 41.4916 63.0526 41.3097 63.181 40.962C69.3263 39.6157 75.5133 39.6221 81.7581 40.9811V42.9815H47.0762V41.7468H62.892Z" fill="#67C84A"/>
<path d="M65.7527 73.1052C65.8073 73.2838 65.8587 73.4529 65.9293 73.6922H81.7645V74.9492H47.0986V73.1179C49.7892 71.5738 62.8728 71.5483 65.7527 73.102V73.1052Z" fill="#67C84A"/>
<path d="M79.1376 64.9494V66.937H49.7148V65.7342H60.2331C60.323 65.4694 60.3872 65.2876 60.5156 64.9079C66.6609 63.5967 72.8575 63.568 79.1344 64.9494H79.1376Z" fill="#67C84A"/>
<path d="M79.1315 77.692V78.9202H49.7344V76.955C55.9214 75.4747 62.1469 75.6342 68.3532 76.8721C68.4591 77.2485 68.5105 77.4368 68.5811 77.692H79.1315Z" fill="#67C84A"/>
<path d="M49.7119 39.0124V37.7873H60.2462C60.3297 37.5225 60.3843 37.3375 60.4998 36.9706C66.6612 35.6307 72.861 35.6339 79.1218 36.9898V39.0124H49.7119Z" fill="#67C84A"/>
<path d="M49.7031 50.957V49.0141C55.9415 47.5338 62.151 47.6774 68.3412 48.9312C68.4471 49.2981 68.5017 49.4831 68.5724 49.7352H79.1227V50.957H49.7031Z" fill="#67C84A"/>
<path d="M79.1479 94.91H49.7188V93.7073H60.2498C60.3301 93.4521 60.3879 93.267 60.4457 93.082C62.995 91.4932 76.9326 91.5219 79.1511 93.1522V94.9068L79.1479 94.91Z" fill="#67C84A"/>
<path d="M68.427 21.2211C68.4623 21.3679 68.5041 21.537 68.5683 21.8018H79.125V23.0173H49.7119V21.2754C51.8502 19.677 65.9066 19.6324 68.427 21.2243V21.2211Z" fill="#67C84A"/>
<path d="M52.3867 90.8756V89.692H57.5688C57.6555 89.4272 57.7133 89.2421 57.8288 88.8848C63.9902 87.5513 70.19 87.5194 76.4573 88.9072V90.8756H52.3867Z" fill="#67C84A"/>
<path d="M52.3867 82.9053V81.1507C54.7048 79.5715 67.9393 79.5172 71.0729 81.0645C71.1179 81.2177 71.1725 81.4059 71.2527 81.6771H76.4701V82.9053H52.3867Z" fill="#67C84A"/>
<path d="M52.3965 62.9501V61.7346H57.5946C57.6556 61.4954 57.6973 61.3263 57.7904 60.9498C63.9774 59.578 70.203 59.5812 76.4734 60.9594V62.9501H52.3965Z" fill="#67C84A"/>
<path d="M52.3906 54.952V53.2069C54.6124 51.6022 68.6464 51.5671 71.1122 53.1654C71.1475 53.325 71.1924 53.5132 71.2438 53.7556H76.4548V54.952H52.3906Z" fill="#67C84A"/>
<path d="M52.3799 34.9845V33.7913H57.5587C57.6422 33.5234 57.7 33.3383 57.7514 33.1756C60.7694 31.6347 73.2654 31.6315 76.4536 33.182V34.9877H52.3799V34.9845Z" fill="#67C84A"/>
<path d="M52.3828 27.0071V25.2939C54.1455 23.67 68.0221 23.5807 71.0851 25.1822C71.13 25.3417 71.1846 25.53 71.2617 25.8011H76.4662V27.0102H52.3828V27.0071Z" fill="#67C84A"/>
<path d="M55.0479 58.9394V56.9582C61.2991 55.6534 67.5085 55.5353 73.7854 56.971V58.9394H55.0479Z" fill="#67C84A"/>
<path d="M55.0479 30.9669V29.276C57.0321 27.6458 71.4256 27.6203 73.7983 29.2505V30.9669H55.0479Z" fill="#67C84A"/>
<path d="M73.8086 85.1541V86.8864H55.0742C55.0742 86.3154 55.0742 85.7315 55.0742 85.1477C57.1002 83.5302 71.4391 83.5111 73.8118 85.1541H73.8086Z" fill="#67C84A"/>
</svg>
