<svg width="21" height="20" viewBox="0 0 21 20" fill="none" xmlns="http://www.w3.org/2000/svg">
<path d="M6.25153 8.99167C7.45153 11.35 9.38486 13.275 11.7432 14.4833L13.5765 12.65C13.8015 12.425 14.1349 12.35 14.4265 12.45C15.3599 12.7583 16.3682 12.925 17.4015 12.925C17.8599 12.925 18.2349 13.3 18.2349 13.7583V16.6667C18.2349 17.125 17.8599 17.5 17.4015 17.5C9.57653 17.5 3.23486 11.1583 3.23486 3.33333C3.23486 2.875 3.60986 2.5 4.0682 2.5H6.98486C7.4432 2.5 7.8182 2.875 7.8182 3.33333C7.8182 4.375 7.98486 5.375 8.2932 6.30833C8.38486 6.6 8.3182 6.925 8.08486 7.15833L6.25153 8.99167Z" fill="#141414"/>
</svg>
