<svg width="45" height="47" viewBox="0 0 45 47" fill="none" xmlns="http://www.w3.org/2000/svg">
<path d="M14.6298 27.0887L13.4468 28.237C13.2797 28.3993 13.1855 28.6221 13.1855 28.8548V29.3448C13.1855 29.8204 13.5712 30.2061 14.0469 30.2061H21.1109C21.5871 30.2061 21.9725 29.8204 21.9725 29.3448V28.7106C21.9725 28.235 21.5871 27.8492 21.1109 27.8492H17.2078L17.3154 27.7502C19.8663 25.2926 21.6718 23.3582 21.6718 20.8395C21.6718 18.8257 20.363 16.7937 17.4381 16.7937C16.1612 16.7937 14.9107 17.2035 13.9167 17.9472C13.5939 18.1893 13.4818 18.6233 13.648 18.9914L13.8653 19.4719C13.9708 19.7056 14.1743 19.8801 14.4219 19.948C14.6679 20.016 14.9335 19.9701 15.1435 19.8234C15.7827 19.3771 16.4406 19.1506 17.0998 19.1506C18.3826 19.1506 19.0328 19.7884 19.0328 21.0376C19.0157 22.7304 17.6115 24.25 14.6298 27.0887Z" fill="#67C84A"/>
<path d="M27.5051 17.0035C27.4822 17.0014 27.4589 17.0005 27.436 17.0005H27.173C26.8913 17.0005 26.6278 17.138 26.4669 17.3684L21.1913 24.9182C21.0902 25.0629 21.0361 25.2352 21.0361 25.4116V26.0168C21.0361 26.4925 21.4215 26.8782 21.8972 26.8782H26.7141V29.3448C26.7141 29.8203 27.0995 30.206 27.5752 30.206H28.3977C28.8731 30.206 29.2592 29.8203 29.2592 29.3448V26.8782H30.1084C30.5841 26.8782 30.9699 26.4925 30.9699 26.0168V25.4575C30.9699 24.9821 30.5841 24.5963 30.1084 24.5963H29.2592V17.8619C29.2592 17.3865 28.8731 17.0006 28.3977 17.0006H27.5752C27.5516 17.0006 27.5281 17.0015 27.5051 17.0035ZM26.7141 24.5963H24.1131C24.7739 23.6369 25.9037 21.9902 26.7141 20.7733V24.5963Z" fill="#67C84A"/>
<path d="M22.1107 43.2742C11.9734 43.2742 3.72585 35.0267 3.72585 24.8894C3.72585 15.2902 11.1214 7.3871 20.5134 6.5746V9.50524C20.5134 9.71343 20.6283 9.90478 20.8119 10.0025C20.8951 10.047 20.9861 10.0687 21.0769 10.0687C21.1867 10.0687 21.2965 10.0365 21.391 9.97289L28.0454 5.50205C28.2013 5.39743 28.2948 5.22203 28.2948 5.03425C28.2948 4.84662 28.2013 4.67107 28.0454 4.56645L21.391 0.0956125C21.2183 -0.0204803 20.9955 -0.0321045 20.8118 0.0661049C20.6282 0.164016 20.5133 0.355368 20.5133 0.563411V2.83668C9.06448 3.65813 0 13.2345 0 24.8892C0 37.0811 9.91901 46.9998 22.1105 46.9998C27.7551 46.9998 33.1288 44.873 37.2416 41.0114L34.6916 38.2952C31.272 41.506 26.8042 43.2742 22.1107 43.2742Z" fill="#67C84A"/>
<path d="M40.9839 13.3662C40.2222 12.1205 39.3314 10.9442 38.3373 9.87061L35.6035 12.4018C36.4309 13.2953 37.1716 14.2739 37.8056 15.3101L40.9839 13.3662Z" fill="#67C84A"/>
<path d="M40.3277 22.3927L44.0196 21.8915C43.8225 20.4399 43.4793 19.0044 42.9993 17.6245L39.4805 18.8482C39.879 19.9941 40.1639 21.1866 40.3277 22.3927Z" fill="#67C84A"/>
<path d="M34.7922 6.77478C33.5933 5.93382 32.3067 5.21058 30.9682 4.62476L29.4746 8.03794C30.587 8.52482 31.6564 9.126 32.6529 9.82494L34.7922 6.77478Z" fill="#67C84A"/>
<path d="M36.3135 36.5643L39.1902 38.932C40.1207 37.8013 40.9412 36.5748 41.6287 35.2864L38.3419 33.5322C37.7702 34.6034 37.0878 35.6237 36.3135 36.5643Z" fill="#67C84A"/>
<path d="M40.4415 26.311C40.3488 27.5267 40.1343 28.7348 39.8047 29.9016L43.3899 30.9153C43.7872 29.5105 44.045 28.0569 44.1568 26.5949L40.4415 26.311Z" fill="#67C84A"/>
</svg>
